<?xml version="1.0" encoding="UTF-8" standalone="no"?><!DOCTYPE svg PUBLIC "-//W3C//DTD SVG 1.1//EN" "http://www.w3.org/Graphics/SVG/1.1/DTD/svg11.dtd"><svg width="100%" height="100%" viewBox="0 0 820 336" version="1.1" xmlns="http://www.w3.org/2000/svg" xmlns:xlink="http://www.w3.org/1999/xlink" xml:space="preserve" xmlns:serif="http://www.serif.com/" style="fill-rule:evenodd;clip-rule:evenodd;stroke-linejoin:round;stroke-miterlimit:2;"><g id="Layer_1-2"><path d="M343.527,171.318l-0,-21.469l-50.07,-0l-0,-14.315l-7.161,-0l-0,-14.308l-7.154,-0l-0,-28.645l-7.154,0l-0,-7.154l-7.161,0l-0,-14.3l-7.154,-0l-0,-14.316l-193.266,0l0,7.162l-7.154,-0l0,7.154l-7.154,-0l0,7.153l-7.161,0l0,7.162l-7.168,-0l-0,7.139l-7.147,0l-0,7.154l-7.154,-0l0,7.161l-7.154,0l0,7.154l-7.161,0l-0,7.161l-7.154,0l-0,178.929l21.469,-0l0,21.476l14.301,0l-0,7.154l7.154,-0l-0,7.154l193.25,-0l0,-14.308l28.623,0l0,-21.476l14.315,-0l0,-28.623l21.47,-0l-0,-57.254l-21.47,0l0,-42.945l64.415,-0Zm-257.651,85.884l-21.469,-0l0,-71.54l21.469,0l0,71.54Zm-57.253,-114.507l-0,-14.344l7.147,-0l-0,-7.154l7.154,-0l-0,-7.132l7.161,-0l-0,-7.154l7.154,-0l-0,-7.161l7.154,-0l-0,-7.169l7.146,0l0,-7.154l7.154,0l0,-7.147l157.481,0l0,7.162l14.315,-0l0,14.308l7.154,-0l0,42.945l-229.02,-0Zm207.551,150.291l-64.414,-0l-0,-14.315l64.414,-0l0,14.315Zm42.938,-42.938l-128.821,-0l-0,-21.469l-14.315,-0l-0,-35.77l14.315,-0l-0,-21.491l107.352,-0l0,64.414l21.469,0l0,14.316Z" style="fill:#333;fill-rule:nonzero;"/><rect x="193.229" y="192.794" width="21.476" height="35.784" style="fill:#333;"/><rect x="171.76" y="278.671" width="64.415" height="14.315" style="fill:#fcbf7c;"/><path d="M257.643,235.732l0,-64.414l-107.352,-0l-0,21.476l-14.315,0l-0,35.77l14.315,-0l-0,21.469l128.821,0l0,-14.301l-21.469,0Zm-64.414,-42.938l21.476,0l0,35.77l-21.476,-0l-0,-35.77Z" style="fill:#fcbf7c;fill-rule:nonzero;"/><rect x="64.407" y="185.633" width="21.469" height="71.568" style="fill:#fcbf7c;"/><path d="M257.643,99.75l0,42.945l-229.02,-0l-0,-14.315l7.161,-0l0,-7.154l7.154,-0l0,-7.161l7.161,-0l0,-7.154l7.154,-0l0,-7.161l7.154,-0l0,-7.154l7.161,-0l0,-7.154l7.154,-0l0,-7.162l157.452,0l0,7.162l14.315,-0l0,14.308l7.154,-0Z" style="fill:#3182ce;fill-rule:nonzero;"/></g><path d="M467.425,198.902l-0.779,-8.297l-8.297,0.779l-0.779,-8.296l-8.296,0.779l-2.337,-24.891l8.296,-0.779l-0.779,-8.297l8.297,-0.779l-0.779,-8.297l33.187,-3.116l0.78,8.297l8.296,-0.779l0.779,8.297l-16.593,1.558l-0.779,-8.297l-16.594,1.558l0.779,8.297l-8.297,0.779l2.337,24.891l8.297,-0.779l0.779,8.296l16.594,-1.558l-0.779,-8.296l16.593,-1.559l0.78,8.297l-8.297,0.779l0.779,8.297l-33.188,3.116Z" style="fill:#3182ce;fill-rule:nonzero;"/><path d="M525.503,193.449l-0.779,-8.297l-8.297,0.779l-2.337,-24.89l8.297,-0.779l-0.779,-8.297l41.484,-3.895l0.779,8.297l8.297,-0.78l2.337,24.891l-8.297,0.779l0.779,8.297l-41.484,3.895Zm7.518,-9.076l24.891,-2.337l-2.338,-24.89l-24.89,2.337l2.337,24.89Z" style="fill:#3182ce;fill-rule:nonzero;"/><path d="M591.878,187.217l-0.779,-8.297l-8.297,0.779l-3.116,-33.187l16.594,-1.558l3.116,33.187l24.89,-2.337l-3.116,-33.188l16.594,-1.558l3.895,41.485l-49.781,4.674Z" style="fill:#3182ce;fill-rule:nonzero;"/><path d="M671.73,146.239l8.297,-0.779l0.779,8.297l-8.297,0.779l2.337,24.89l-16.593,1.559l-3.896,-41.485l16.594,-1.558l0.779,8.297Zm32.409,-11.413l0.779,8.297l-24.891,2.337l-0.779,-8.297l24.891,-2.337Z" style="fill:#3182ce;fill-rule:nonzero;"/><path d="M741.221,173.194l-3.116,-33.187l-16.594,1.558l-0.779,-8.297l16.594,-1.558l-1.558,-16.594l16.594,-1.558l1.558,16.594l16.593,-1.558l0.779,8.297l-16.593,1.558l3.116,33.187l-16.594,1.558Z" style="fill:#3182ce;fill-rule:nonzero;"/><path d="M448.669,117.369l-4.09,-43.558l12.445,-1.169l1.753,18.668l18.668,-1.753l-1.753,-18.668l12.445,-1.168l4.09,43.558l-12.445,1.169l-1.753,-18.668l-18.668,1.752l1.753,18.668l-12.445,1.169Z" style="fill:#333;fill-rule:nonzero;"/><path d="M513.612,73.606l-0.584,-6.223l12.445,-1.168l0.584,6.223l-12.445,1.168Zm-8.94,38.504l-0.584,-6.222l12.445,-1.169l-1.752,-18.668l-6.223,0.585l-0.584,-6.223l18.668,-1.753l2.337,24.891l12.445,-1.169l0.584,6.223l-37.336,3.505Z" style="fill:#333;fill-rule:nonzero;"/><path d="M604.234,102.762l-0.584,-6.223l12.445,-1.168l-2.921,-31.113l-12.445,1.168l-0.584,-6.222l37.335,-3.506l0.585,6.223l-12.446,1.168l2.922,31.113l12.445,-1.168l0.584,6.222l-37.336,3.506Z" style="fill:#333;fill-rule:nonzero;"/><path d="M657.901,72.613l-1.753,-18.668l12.445,-1.168l1.753,18.667l-12.445,1.169Z" style="fill:#333;fill-rule:nonzero;"/><path d="M697.574,93.998l-2.921,-31.113l37.335,-3.506l0.585,6.223l6.222,-0.585l2.337,24.891l-12.445,1.169l-2.337,-24.891l-6.223,0.584l2.337,24.891l-12.445,1.168l-2.337,-24.89l-6.223,0.584l2.338,24.891l-6.223,0.584Z" style="fill:#333;fill-rule:nonzero;"/><path d="M349.02,232.01l-18.266,1.715l1.715,18.266l18.266,-1.715l-1.715,-18.266Z" style="fill:#333;"/><path d="M364.056,213.858l-18.267,1.715l1.716,18.266l18.266,-1.715l-1.715,-18.266Z" style="fill:#333;"/><path d="M380.649,212.3l-18.266,1.715l1.715,18.266l18.266,-1.715l-1.715,-18.266Z" style="fill:#333;"/><path d="M366.577,230.378l-18.266,1.716l1.715,18.266l18.266,-1.715l-1.715,-18.267Z" style="fill:#333;"/><path d="M379.481,199.855l-18.266,1.715l1.715,18.266l18.266,-1.715l-1.715,-18.266Z" style="fill:#333;"/><path d="M397.243,210.742l-18.266,1.715l1.715,18.266l18.266,-1.715l-1.715,-18.266Z" style="fill:#333;"/><path d="M413.837,209.184l-18.266,1.715l1.715,18.266l18.266,-1.715l-1.715,-18.266Z" style="fill:#333;"/><path d="M430.43,215.959l-18.266,1.715l1.715,18.266l18.266,-1.715l-1.715,-18.266Z" style="fill:#333;"/><path d="M447.342,220.949l-18.266,1.715l1.715,18.266l18.266,-1.715l-1.715,-18.266Z" style="fill:#333;"/><path d="M390.368,182.092l-18.266,1.715l1.715,18.267l18.266,-1.716l-1.715,-18.266Z" style="fill:#333;"/><path d="M397.107,164.72l-18.266,1.715l1.715,18.266l18.266,-1.715l-1.715,-18.266Z" style="fill:#333;"/><path d="M403.845,147.347l-18.266,1.715l1.715,18.266l18.267,-1.715l-1.716,-18.266Z" style="fill:#333;"/><path d="M410.584,129.974l-18.266,1.715l1.715,18.266l18.266,-1.715l-1.715,-18.266Z" style="fill:#333;"/><path d="M413.175,112.991l-18.267,1.715l1.716,18.266l18.266,-1.715l-1.715,-18.266Z" style="fill:#333;"/><path d="M415.765,96.008l-18.266,1.715l1.715,18.266l18.266,-1.715l-1.715,-18.266Z" style="fill:#333;"/><path d="M418.355,79.025l-18.266,1.715l1.715,18.266l18.266,-1.715l-1.715,-18.266Z" style="fill:#333;"/><path d="M425.094,61.652l-18.266,1.715l1.715,18.266l18.266,-1.715l-1.715,-18.266Z" style="fill:#333;"/><path d="M431.833,44.279l-18.266,1.715l1.715,18.266l18.266,-1.715l-1.715,-18.266Z" style="fill:#333;"/><path d="M788.235,11.417l-18.266,1.715l1.715,18.266l18.266,-1.715l-1.715,-18.266Z" style="fill:#333;"/><path d="M803.037,169.057l-19.184,1.801l1.972,20.996l19.183,-1.801l-1.971,-20.996Z" style="fill:#333;"/><path d="M806.387,26.453l-18.266,1.715l13.368,142.38l18.266,-1.715l-13.368,-142.38Z" style="fill:#333;"/><path d="M447.258,30.276l-18.266,1.715l1.715,18.266l18.266,-1.715l-1.715,-18.266Z" style="fill:#333;"/><path d="M769.701,-0l-324.115,30.433l1.715,18.266l324.115,-30.433l-1.715,-18.266Z" style="fill:#333;"/><path d="M789.797,189.425l-342.692,32.177l1.715,18.266l342.692,-32.177l-1.715,-18.266Z" style="fill:#333;"/></svg>