<?xml version="1.0" encoding="UTF-8"?>
<svg id="Layer_2" data-name="Layer 2" xmlns="http://www.w3.org/2000/svg" xmlns:xlink="http://www.w3.org/1999/xlink" viewBox="0 0 1419.21 1420.45">
  <defs>
    <style>
      .cls-1 {
        fill: none;
      }

      .cls-2 {
        fill: #4299e1;
      }

      .cls-3 {
        fill: #f8fafc;
      }

      .cls-4 {
        clip-path: url(#clippath-1);
      }

      .cls-5 {
        clip-path: url(#clippath-3);
      }

      .cls-6 {
        clip-path: url(#clippath-2);
      }

      .cls-7 {
        fill: #f6e049;
      }

      .cls-8 {
        fill: #383a48;
      }

      .cls-9 {
        fill: #14b8a6;
      }

      .cls-10 {
        fill: #27272a;
      }

      .cls-11 {
        fill: #18181b;
      }

      .cls-12 {
        clip-path: url(#clippath);
      }
    </style>
    <clipPath id="clippath">
      <rect class="cls-1" x="234.26" y="587.64" width="1121" height="545"/>
    </clipPath>
    <clipPath id="clippath-1">
      <rect class="cls-1" x="711.26" y="537.64" width="440" height="438"/>
    </clipPath>
    <clipPath id="clippath-2">
      <rect class="cls-1" x="58.26" y="355.64" width="522" height="276"/>
    </clipPath>
    <clipPath id="clippath-3">
      <rect class="cls-1" x="187.26" y="507.64" width="240" height="300"/>
    </clipPath>
  </defs>
  <g id="Layer_2-2" data-name="Layer 2">
    <g id="Layer_1-2" data-name="Layer 1-2">
      <path class="cls-2" d="M1401.9,717.56c19.67,174.23,43.43,384.69-58.84,528.17-173.08,242.83-613.82,162.9-632.56,159.26-106.68-20.71-230.76-102.65-478.92-266.52-123.26-81.38-201.17-143.13-225.57-243.77-3.86-15.92-16.52-74.6,13.08-177.14,15.7-54.4,55.34-162.88,290.95-394.91C552.6,83.76,668.52,43.21,710.49,30.12,775.36,9.89,818.78-3.65,878.85.87c251.18,18.89,431.31,326.27,493.63,552.55,18.46,67.02,24.28,118.57,29.42,164.14Z"/>
      <g class="cls-12">
        <g>
          <g>
            <path class="cls-3" d="M1351.02,658.82l-52.28,359.84-6.95,47.88h-747.99l6.95-47.88,54.75-376.84c4.22-29.02,29.09-50.56,58.4-50.56h628.72c35.97,0,63.57,31.93,58.4,67.55h0Z"/>
            <path class="cls-10" d="M1291.79,1070.17h-747.99c-1.05,0-2.05-.46-2.74-1.25-.69-.8-1-1.85-.85-2.89l61.7-424.72c2.17-14.9,9.62-28.53,21-38.38s25.93-15.28,40.98-15.28h628.72c18.2,0,35.46,7.9,47.37,21.67,11.91,13.77,17.23,32.01,14.62,50.03l-52.28,359.84-6.95,47.88c-.26,1.78-1.78,3.1-3.58,3.1h0ZM547.99,1062.92h740.67l58.78-404.62,3.58.52-3.58-.52c2.32-15.94-2.4-32.06-12.93-44.25-10.53-12.18-25.8-19.16-41.89-19.16h-628.71c-27.32,0-50.89,20.4-54.82,47.46l-61.1,420.57h0Z"/>
          </g>
          <g>
            <path class="cls-10" d="M300.31,1129.02h928.86c34.48,0,62.43-27.97,62.43-62.47H237.88c0,34.5,27.95,62.47,62.43,62.47Z"/>
            <path class="cls-10" d="M1229.17,1132.64H300.31c-36.42,0-66.05-29.65-66.05-66.1,0-2,1.62-3.62,3.62-3.62h1053.72c2,0,3.62,1.62,3.62,3.62,0,36.45-29.63,66.1-66.05,66.1h0ZM241.61,1070.17c1.88,30.77,27.49,55.23,58.7,55.23h928.86c31.21,0,56.82-24.46,58.7-55.23H241.61h0Z"/>
          </g>
          <g>
            <polygon class="cls-9" points="1298.75 1018.67 1291.79 1066.54 543.8 1066.54 550.76 1018.67 1298.75 1018.67"/>
            <path class="cls-10" d="M1291.79,1070.17h-747.99c-1.05,0-2.05-.46-2.74-1.25-.69-.8-1-1.85-.85-2.89l6.96-47.88c.26-1.78,1.78-3.1,3.58-3.1h747.99c1.05,0,2.05.46,2.74,1.25.69.8,1,1.85.85,2.89l-6.95,47.88c-.26,1.78-1.79,3.1-3.58,3.1h-.01ZM547.99,1062.92h740.67l5.9-40.63h-740.67l-5.9,40.63h0Z"/>
          </g>
          <g>
            <path class="cls-10" d="M1188.33,591.27h-430.35c14.82,0,20.69,8.51,23.49,15.34,4.28,18.1,20.52,31.96,40.38,31.96h302.46c18.94,0,35.22-12.79,40.04-30.68,2.58-6.98,8.22-16.61,23.98-16.61h0Z"/>
            <path class="cls-10" d="M1124.3,642.18h-302.46c-20.91,0-38.9-14.15-43.84-34.46-3.68-8.76-10.05-12.84-20.03-12.84-2,0-3.62-1.62-3.62-3.62s1.62-3.62,3.62-3.62h430.35c2,0,3.62,1.62,3.62,3.62s-1.62,3.62-3.62,3.62c-13.62,0-18.25,8-20.53,14.1-5.35,19.55-23.21,33.2-43.49,33.2h0ZM778.03,594.89c2.8,2.7,5.07,6.15,6.78,10.34.07.18.13.36.17.54,4.06,17.17,19.22,29.17,36.86,29.17h302.46c17.08,0,32.1-11.51,36.55-28,.03-.11.06-.21.1-.31,1.79-4.83,4.24-8.74,7.35-11.73h-390.27Z"/>
          </g>
        </g>
      </g>
      <g class="cls-4">
        <g>
          <path class="cls-10" d="M1151.26,731.89c-.07-10.47-4.36-20.47-11.91-27.74-6.99-6.8-16.23-10.79-25.98-11.23h-2.16l-147.24,2.01c-1.55,0-3.09.13-4.62.37h-.37c5.88-20.23,23.52-81.43,28.58-102.92,2.9-12.42,1.19-24.17-4.91-33.91-6.33-9.96-16.75-16.95-29.55-19.71-1.56-.3-7.52-.37-27.91-.15-4.62.07-9.3.07-9.97.07-6.33-.3-10.27.67-12.95,3.2-3.72,3.49-3.72,8.77-3.8,16.06-.07,6.32-.07,14.13-2.38,24.02-11.17,49-42.28,83.21-75.18,119.35-13.99,15.39-28.43,31.23-41.09,48.33-42.46,51.03-41.7,125.26,1.79,175.42.07.15.22.3.3.45,8.1,9.66,17.46,18.19,27.84,25.36,23.32,16.17,51.04,24.81,79.42,24.76h1.27l93.42-.82c1.27,0,2.53-.07,3.72-.15h.52l68.33-.82c21.88-.22,39.53-16.29,39.38-35.84-.07-11.82-6.7-22.23-16.67-28.55,9.89-.22,19.39-3.93,26.8-10.48,7.52-6.84,11.61-15.84,11.54-25.43s-4.32-18.59-11.98-25.21c-1.48-1.27-3.05-2.44-4.69-3.49,10.19-.29,19.87-4.5,27.02-11.75,15.25-15.33,15.18-40.11-.17-55.35-.12-.12-.23-.23-.35-.34-2.35-2.29-4.98-4.29-7.82-5.95,18.58-3.83,31.86-20.24,31.71-39.19v-.07c.05-.09.08-.19.07-.3h-.01Z"/>
          <path class="cls-7" d="M1006.26,898.75l-1.12-127.83c-.37-38.97-33.2-70.42-73.25-70.05l-79.87.67c-76.22.67-137.71,61.65-137.04,135.86s63.2,134.07,139.42,133.4l79.87-.67c40.05-.37,72.35-32.42,71.98-71.39h.01Z"/>
          <path class="cls-10" d="M853.14,974.53c-77.71,0-141.21-61.27-141.88-137.12-.67-76.29,62.45-138.91,140.76-139.65l79.87-.67h.67c41.76,0,75.93,32.94,76.3,73.77l1.12,127.83c.18,19.87-7.75,38.96-21.96,52.87-14.28,14.2-33.6,22.19-53.74,22.23l-79.87.67c-.42.06-.84.09-1.27.07h0ZM932.56,704.53h-.6l-79.87.67c-74.14.67-133.99,59.94-133.39,132.14.6,71.83,60.81,129.76,134.43,129.76h1.27l79.87-.67c18.19-.06,35.62-7.28,48.53-20.08,12.76-12.51,19.88-29.66,19.73-47.52l-1.12-127.83c-.37-36.81-31.19-66.48-68.85-66.48h0Z"/>
          <path class="cls-7" d="M946.71,971.03l-93.42.82c-28.04.25-55.47-8.17-78.53-24.09-10.11-6.99-19.25-15.29-27.17-24.69v-.07l3.05-6.62,37.22-80.53,12.65-27.44,46.97-101.73,2.38-5.13.89-2.01,93.42-.82c3.03-.01,6.07.16,9.08.52,33.09,3.89,59.1,30.11,62.68,63.21.3,2.38.37,4.76.45,7.21l1.12,129.24c0,1.19,0,2.38-.07,3.57,0,.89-.07,1.78-.15,2.68-2.9,36.9-33.52,65.49-70.57,65.88h0Z"/>
          <path class="cls-10" d="M852.02,975.57c-28.39.04-56.1-8.6-79.42-24.76-10.41-7.13-19.77-15.66-27.84-25.36-.89-1.03-1.12-2.47-.6-3.72,0-.07.07-.22.07-.3l103.24-223.45c.59-1.32,1.91-2.16,3.35-2.16l93.42-.82c3.18-.01,6.36.16,9.53.52,3.5.37,6.96,1.04,10.35,2.01,30.05,8.03,52.1,33.66,55.53,64.55.3,2.52.45,5.05.45,7.58l1.12,129.24c0,1.34,0,2.6-.07,3.79,0,.82-.07,1.78-.15,2.83-3.17,38.8-35.4,68.8-74.36,69.23l-93.42.82h-1.2ZM751.98,922.4c7.32,8.42,15.68,15.89,24.86,22.23,22.42,15.51,49.1,23.7,76.37,23.42l93.42-.82h0c35.15-.38,64.23-27.46,67.07-62.46.07-.89.15-1.71.15-2.53.07-1.12.07-2.23.07-3.42l-1.12-129.24c0-2.26-.13-4.52-.37-6.77-3.15-27.83-23.02-50.89-50.1-58.15-3.05-.82-6.16-1.41-9.3-1.78-2.86-.37-5.75-.52-8.63-.45l-91.11.82-2.31,4.91-99,214.23h0Z"/>
          <path class="cls-9" d="M905.1,734.64c-.15-19.85,1.86-35.92,21.66-36.07l147.31-2.01c19.86-.16,36.09,15.78,36.25,35.62.16,19.84-15.8,36.05-35.66,36.21l-133.32,1.86c-19.84.18-36.07-15.75-36.25-35.57v-.05h.01Z"/>
          <path class="cls-11" d="M941.05,773.98c-21.77.02-39.49-17.51-39.67-39.26-.15-14.8-.37-39.63,25.38-39.86l147.24-2.01h.37c21.91-.1,39.76,17.56,39.86,39.45s-17.58,39.72-39.49,39.82h0l-133.32,1.86h-.37ZM908.82,734.64c.12,17.66,14.48,31.91,32.16,31.9h.3l133.32-1.86c17.8-.08,32.16-14.56,32.08-32.35-.08-17.78-14.58-32.13-32.38-32.05h-.3l-147.24,2.01c-15.41.15-18.16,11.01-17.94,32.35h0Z"/>
          <path class="cls-9" d="M1004.69,897.71l-1.12-124.93c-.37-38.07-32.6-68.78-71.98-68.49l-78.53.67c-74.96.67-135.4,60.23-134.73,132.73s62.15,131.02,137.04,130.35l78.53-.67c39.38-.3,71.16-31.6,70.79-69.68v.02Z"/>
          <path class="cls-9" d="M872.79,859.94c84.41-40.01,28.81-128.72,43.47-159.21,0,0,24.34-83.28,30.44-109.31,5.95-25.28-9.3-44.32-31.64-49.15s-45.26,8.48-52.55,40.38c-17.64,77.26-85.01,119.72-126.1,182.18"/>
          <path class="cls-10" d="M872.79,863.66c-1.44,0-2.76-.84-3.35-2.16-.88-1.87-.08-4.1,1.79-4.98,55.23-26.18,47.86-73.84,41.91-112.21-2.83-18.37-5.29-34.28-.3-44.91,1.56-5.35,24.49-83.95,30.3-108.86,2.46-10.48,1.12-20.23-3.95-28.18-5.21-8.25-14.07-14.13-24.79-16.43-18.76-4.09-40.94,5.95-48.16,37.63-11.61,50.94-44.81,87.37-76.97,122.7-17.34,19.11-35.36,38.82-49.72,60.68-1.09,1.7-3.34,2.19-5.04,1.11-.03-.02-.07-.04-.1-.06-1.7-1.13-2.17-3.43-1.04-5.13,14.66-22.31,32.83-42.31,50.39-61.57,32.9-36.21,64.02-70.35,75.18-119.35,3.65-15.99,11.31-28.48,22.11-36.21,10.08-7.19,22.76-9.74,34.84-6.99,12.73,2.75,23.22,9.74,29.55,19.71,6.1,9.74,7.82,21.42,4.91,33.91-6.03,25.8-30.22,108.72-30.52,109.53-.07.22-.15.37-.22.59-4.17,8.63-1.86,23.57.82,40.9,5.95,38.59,14.14,91.54-46.08,120.09-.51.15-1.03.22-1.56.22v-.03Z"/>
          <path class="cls-9" d="M969.49,733.15c.06-19.38,15.59-35.16,34.99-35.54l69.6-.97c19.69-.16,35.79,15.65,35.95,35.32.16,19.67-15.67,35.75-35.36,35.92h0l-68.41.89c-19.77.53-36.23-15.06-36.76-34.81,0-.27-.01-.54-.01-.8h0Z"/>
          <path class="cls-10" d="M1005.29,772.41c-10.36.02-20.31-4.04-27.69-11.3-7.61-7.34-11.88-17.47-11.84-28.03h0c-.01-10.27,4.03-20.13,11.24-27.44,7.22-7.36,17.01-11.62,27.32-11.9l69.6-.97c10.51-.11,20.63,3.96,28.14,11.3,15.54,15.2,15.8,40.1.59,55.63-7.37,7.52-17.45,11.78-27.98,11.82l-68.33.89h-1.05ZM1074.37,700.28h-.3l-69.6.97c-17.37.3-31.29,14.47-31.26,31.83h0c-.02,8.55,3.45,16.74,9.6,22.68,6.23,6.09,14.66,9.39,23.37,9.15l68.41-.89c8.54-.05,16.72-3.5,22.7-9.59,12.35-12.41,12.3-32.47-.12-44.81-.08-.08-.17-.17-.25-.25-6.06-5.83-14.14-9.08-22.55-9.07h0v-.02Z"/>
          <path class="cls-9" d="M957.5,806.25c.06-19.38,15.59-35.16,34.99-35.54l69.6-.97c19.69-.16,35.79,15.65,35.95,35.32.16,19.67-15.67,35.75-35.36,35.92h0l-68.41.89c-19.77.53-36.23-15.06-36.76-34.81,0-.27-.01-.54-.01-.8h0Z"/>
          <path class="cls-10" d="M993.31,845.59c-10.36.02-20.31-4.04-27.69-11.3-15.5-15.09-15.82-39.87-.71-55.35l.12-.12c7.22-7.36,17.01-11.62,27.32-11.9l69.6-.97c10.51-.11,20.63,3.96,28.14,11.3,15.54,15.2,15.8,40.1.59,55.63-7.37,7.52-17.45,11.78-27.98,11.82l-68.33.89h-1.06ZM961.23,806.25c-.02,8.55,3.45,16.74,9.6,22.68,6.23,6.09,14.66,9.39,23.37,9.15l68.41-.89c8.54-.05,16.72-3.5,22.7-9.59,12.35-12.41,12.3-32.47-.12-44.81-.08-.08-.17-.17-.25-.25-6.11-5.95-14.32-9.24-22.85-9.15l-69.6.97c-17.37.36-31.27,14.54-31.26,31.9h0Z"/>
          <path class="cls-9" d="M935.84,874.66c0-17.25,15.56-31.38,34.99-31.9l69.6-.97c19.87-.15,36.1,13.98,36.25,31.6s-15.78,32.05-35.66,32.2l-68.41.82c-20.25.52-36.85-13.83-36.77-31.75h0Z"/>
          <path class="cls-10" d="M971.64,910.21c-10.82.08-21.25-4.03-29.1-11.45-6.6-6.29-10.36-14.98-10.42-24.09,0-9.44,4.09-18.29,11.39-24.99,7.49-6.69,17.13-10.46,27.17-10.63l69.6-.97h.37c10.12-.09,19.92,3.48,27.62,10.04,7.67,6.69,11.91,15.62,11.98,25.21s-4.02,18.66-11.54,25.43c-7.67,6.77-17.53,10.52-27.76,10.56l-68.33.82c-.32.06-.64.09-.97.07h0ZM1040.72,845.59h-.3l-69.6.97c-17.49.45-31.26,12.79-31.34,28.18h0c.07,7.1,3.02,13.86,8.19,18.74,6.33,6.17,15.33,9.59,24.79,9.37l68.41-.82c8.42.04,16.56-3.03,22.85-8.63,5.95-5.35,9.16-12.42,9.08-19.85s-3.42-14.43-9.45-19.71c-5.95-5.35-13.99-8.25-22.63-8.25h0Z"/>
          <path class="cls-9" d="M914.18,939.21c0-17.18,15.56-31.31,34.99-31.75l69.6-.97c19.87-.15,36.1,13.91,36.25,31.45s-15.78,31.9-35.66,32.12l-68.41.82c-20.17.45-36.77-13.91-36.77-31.68h0Z"/>
          <path class="cls-10" d="M949.98,974.6c-11.09,0-21.66-4.16-29.18-11.53-6.56-6.25-10.3-14.89-10.35-23.94h0c0-9.37,4.09-18.22,11.39-24.91,7.49-6.67,17.14-10.41,27.17-10.56l69.6-.97h.37c21.74,0,39.45,15.69,39.6,35.17.15,19.56-17.49,35.62-39.38,35.84l-68.33.82c-.29.06-.59.09-.89.07h0ZM1019.13,910.2h-.3l-69.6.97c-17.19.45-31.26,13.01-31.34,28.03.09,7.03,3.02,13.74,8.11,18.59,6.33,6.17,15.33,9.59,24.86,9.37l68.41-.82c17.79-.15,32.16-12.86,32.01-28.33-.15-15.39-14.59-27.81-32.16-27.81h0Z"/>
        </g>
      </g>
      <g class="cls-6">
        <g id="Layer_1_1_-i7" data-name="Layer 1 1 -i7">
          <g>
            <g>
              <path class="cls-3" d="M503.46,470.42c-4.23-62.06-55.92-111.13-119.07-111.13-40.37,0-76,20.01-97.61,50.75-15.26-12.49-34.82-20.01-56.14-20.01-46.14,0-84.03,35.27-88.27,80.24h-1.61c-43.59,0-78.85,35.34-78.85,78.86h0c0,43.59,35.34,78.86,78.85,78.86h357c43.59,0,78.85-35.34,78.85-78.86h0c.07-41.69-32.2-75.79-73.15-78.71Z"/>
              <path class="cls-10" d="M497.76,631.64H140.76c-45.48,0-82.5-37.02-82.5-82.51s36.14-81.63,80.82-82.51c2.77-21.47,13.07-41.25,29.2-56.08,17.08-15.63,39.2-24.24,62.35-24.24,20,0,39.5,6.5,55.41,18.47,23.14-30.81,59.65-49.14,98.34-49.14,31.39,0,61.25,11.83,84.1,33.3,21.98,20.66,35.55,48.26,38.33,78.13,19.57,2.12,37.67,11.17,51.25,25.7,14.31,15.33,22.19,35.34,22.19,56.37,0,45.49-37.01,82.51-82.5,82.51h.01ZM140.76,473.93c-41.47,0-75.2,33.73-75.2,75.21s33.73,75.21,75.2,75.21h357c41.47,0,75.2-33.73,75.2-75.21,0-19.2-7.15-37.46-20.22-51.4-13-13.95-30.59-22.34-49.57-23.66-1.83-.15-3.29-1.61-3.36-3.36-1.97-29.21-14.89-56.37-36.28-76.45-21.54-20.23-49.64-31.32-79.14-31.32-37.6,0-72.93,18.4-94.62,49.21-.58.8-1.46,1.39-2.48,1.53s-2.04-.15-2.77-.8c-15.11-12.34-34.24-19.2-53.81-19.2-21.32,0-41.69,7.89-57.38,22.27-15.62,14.31-25.26,33.66-27.23,54.62-.15,1.9-1.75,3.29-3.65,3.29h-1.68v.07h-.01Z"/>
            </g>
            <g>
              <circle class="cls-10" cx="563.98" cy="529.27" r="4.16"/>
              <circle class="cls-10" cx="563.98" cy="549.65" r="4.16"/>
              <circle class="cls-10" cx="563.98" cy="570.09" r="4.16"/>
              <circle class="cls-10" cx="563.98" cy="590.46" r="4.16"/>
              <circle class="cls-10" cx="543.61" cy="570.09" r="4.16"/>
              <circle class="cls-10" cx="543.61" cy="590.46" r="4.16"/>
              <circle class="cls-10" cx="543.61" cy="610.83" r="4.16"/>
              <circle class="cls-10" cx="523.17" cy="590.46" r="4.16"/>
              <circle class="cls-10" cx="523.17" cy="610.83" r="4.16"/>
              <circle class="cls-10" cx="502.8" cy="590.46" r="4.16"/>
              <circle class="cls-10" cx="502.8" cy="610.83" r="4.16"/>
              <circle class="cls-10" cx="482.43" cy="590.46" r="4.16"/>
              <circle class="cls-10" cx="482.43" cy="610.83" r="4.16"/>
              <circle class="cls-10" cx="461.99" cy="590.46" r="4.16"/>
              <circle class="cls-10" cx="461.99" cy="610.83" r="4.16"/>
              <circle class="cls-10" cx="441.62" cy="590.46" r="4.16"/>
              <circle class="cls-10" cx="441.62" cy="610.83" r="4.16"/>
              <circle class="cls-10" cx="421.25" cy="590.46" r="4.16"/>
              <circle class="cls-10" cx="421.25" cy="610.83" r="4.16"/>
              <circle class="cls-10" cx="400.81" cy="590.46" r="4.16"/>
              <circle class="cls-10" cx="400.81" cy="610.83" r="4.16"/>
              <circle class="cls-10" cx="380.44" cy="590.46" r="4.16"/>
              <circle class="cls-10" cx="380.44" cy="610.83" r="4.16"/>
              <circle class="cls-10" cx="360" cy="590.46" r="4.16"/>
              <circle class="cls-10" cx="360" cy="610.83" r="4.16"/>
              <circle class="cls-10" cx="339.63" cy="590.46" r="4.16"/>
              <circle class="cls-10" cx="339.63" cy="610.83" r="4.16"/>
              <circle class="cls-10" cx="319.26" cy="590.46" r="4.16"/>
              <circle class="cls-10" cx="319.26" cy="610.83" r="4.16"/>
              <circle class="cls-10" cx="298.82" cy="590.46" r="4.16"/>
              <circle class="cls-10" cx="298.82" cy="610.83" r="4.16"/>
              <circle class="cls-10" cx="278.45" cy="590.46" r="4.16"/>
              <circle class="cls-10" cx="278.45" cy="610.83" r="4.16"/>
              <circle class="cls-10" cx="258.08" cy="590.46" r="4.16"/>
              <circle class="cls-10" cx="258.08" cy="610.83" r="4.16"/>
              <circle class="cls-10" cx="237.64" cy="590.46" r="4.16"/>
              <circle class="cls-10" cx="237.64" cy="610.83" r="4.16"/>
              <circle class="cls-10" cx="217.27" cy="590.46" r="4.16"/>
              <circle class="cls-10" cx="217.27" cy="610.83" r="4.16"/>
              <circle class="cls-10" cx="196.83" cy="590.46" r="4.16"/>
              <circle class="cls-10" cx="196.83" cy="610.83" r="4.16"/>
              <circle class="cls-10" cx="176.46" cy="590.46" r="4.16"/>
              <circle class="cls-10" cx="176.46" cy="610.83" r="4.16"/>
            </g>
            <path class="cls-8" d="M503.46,484.81c-2.04,0-3.65-1.61-3.65-3.65v-10.73c0-2.04,1.61-3.65,3.65-3.65s3.65,1.61,3.65,3.65v10.73c0,2.04-1.61,3.65-3.65,3.65Z"/>
            <path class="cls-8" d="M294.36,419.97c-.8,0-1.68-.29-2.34-.88l-7.52-6.28c-1.53-1.31-1.75-3.58-.44-5.11s3.58-1.75,5.11-.44l7.52,6.28c1.53,1.31,1.75,3.58.44,5.11-.73.88-1.75,1.31-2.77,1.31h0Z"/>
          </g>
        </g>
      </g>
      <g class="cls-5">
        <path class="cls-10" d="M426.1,508.31c-.97-.79-2.31-.85-3.41-.24l-233.91,136.97c-.97.61-1.58,1.7-1.52,2.85.06,1.15.85,2.19,1.89,2.61l69.68,27.94-70.89,91.35c-1.03,1.34-.79,3.22.55,4.25l42.47,32.92c.55.43,1.22.67,1.89.67h.37c.79-.12,1.52-.49,2.01-1.15l71.14-91.72,40.47,57.83c.67.97,1.83,1.46,2.98,1.28s2.13-1.03,2.43-2.19l74.91-260.15c.37-1.21-.06-2.49-1.03-3.22h-.03Z"/>
      </g>
    </g>
  </g>
</svg>