<?xml version="1.0" encoding="UTF-8"?>
<svg id="Layer_2" data-name="Layer 2" xmlns="http://www.w3.org/2000/svg" viewBox="0 0 304.58 84.11">
  <defs>
    <style>
      .cls-1 {
        fill: #0ea5e9;
      }

      .cls-2 {
        fill: #18181b;
      }
    </style>
  </defs>
  <g id="Layer_2-2" data-name="Layer 2">
    <g id="Layer_1-2" data-name="Layer 1-2">
      <g>
        <path class="cls-1" d="M285.37,57.59l-17.76,12.06-19.4-9.69,3.43-7.79c2.78-6.32,5.56-12.65,8.34-18.97l8.26-18.74-3.51,20.18c-.43,2.47-.75,4.98-.99,7.65-.25,2.98-.22,4.52-.1,5.91.18,2.1.29,3.08.94,4.28,1.17,2.16,1.94,2.61,2.14,2.7.96-.44,2.64-3.96,3.56-5.86,1.13-2.36,2.02-4.83,2.63-7.34l1.65-6.76,10.81,22.37h0Z"/>
        <g>
          <path class="cls-2" d="M73.22,30.18l-11.88,36h-7.06l-8.06-25.27-8.06,25.27h-7.06l-11.88-36h7.2l8.21,26.71,8.06-26.71h7.06l8.06,26.71,8.21-26.71h7.2Z"/>
          <path class="cls-2" d="M75.38,20.89c0-2.45,1.87-4.32,4.32-4.32s4.25,1.87,4.25,4.32-1.87,4.32-4.25,4.32-4.32-1.87-4.32-4.32ZM76.17,30.18h7.06v36h-7.06V30.18Z"/>
          <path class="cls-2" d="M89.7,66.18V15.78h7.06v50.4h-7.06Z"/>
          <path class="cls-2" d="M119.3,66.76c-10.23,0-18.58-8.28-18.58-18.58s8.35-18.58,18.58-18.58c4.82,0,8.71,2.02,11.38,5.18V15.78h7.13v32.4c0,10.3-8.28,18.58-18.51,18.58ZM107.77,48.18c0,6.55,4.9,11.74,11.52,11.74s11.52-5.18,11.52-11.74-5.04-11.74-11.52-11.74-11.52,5.19-11.52,11.74Z"/>
          <path class="cls-2" d="M146.8,37.02h-5.4v-6.84h5.54c.79-8.86,5.9-14.26,14.69-14.62v6.84c-4.18.43-7.34,3.02-7.63,7.78h7.63v6.84h-7.78v29.16h-7.06v-29.16h0ZM165.88,20.89c0-2.45,1.87-4.32,4.32-4.32s4.25,1.87,4.25,4.32-1.87,4.32-4.25,4.32-4.32-1.87-4.32-4.32ZM166.67,30.18h7.06v36h-7.06V30.18Z"/>
          <path class="cls-2" d="M180.2,47.39c0-11.95,6.41-17.35,15.12-17.35h.72v6.84h-.72c-5.04,0-8.06,3.24-8.06,10.51v18.79h-7.06v-18.79Z"/>
          <path class="cls-2" d="M216.13,29.6c9.29,0,18.22,6.77,18.58,17.93,0,1.22-.07,2.3-.22,3.24h-29.09c.58,5.33,4.9,9.14,10.73,9.14,3.96,0,6.77-1.58,8.64-3.6l8.42.07c-3.1,6.19-9.58,10.37-16.85,10.37-10.37,0-18.51-8.28-18.51-18.51s7.92-18.65,18.29-18.65h.01ZM227.15,45.01c-1.3-4.9-5.62-8.57-10.8-8.57-5.62,0-9.65,3.67-10.94,8.57h21.75,0Z"/>
        </g>
      </g>
      <path class="cls-2" d="M304.58,84.11H0V0h304.58v84.11ZM8,76.11h288.58V8H8v68.11Z"/>
    </g>
  </g>
</svg>